<svg width="189" height="29" viewBox="0 0 189 29" fill="none" xmlns="http://www.w3.org/2000/svg">
<path fill-rule="evenodd" clip-rule="evenodd" d="M11.6143 22.686H0V17.8997H13.05L15.97 19.8206L18.8899 17.8997H31.9399V22.686H20.3257L15.97 25.5514L11.6143 22.686Z" fill="#fff"/>
<path fill-rule="evenodd" clip-rule="evenodd" d="M15.97 5.13618C11.119 5.13618 7.1865 9.06485 7.1865 13.9111H2.39551C2.39551 6.42143 8.473 0.349854 15.97 0.349854C23.4669 0.349854 29.5444 6.42143 29.5444 13.9111H24.7534C24.7534 9.06485 20.821 5.13618 15.97 5.13618Z" fill="#fff"/>
<mask id="path-3-outside-1_2658_21775" maskUnits="userSpaceOnUse" x="41.6781" y="-0.800049" width="147" height="30" fill="black">
<rect fill="white" x="41.6781" y="-0.800049" width="147" height="30"/>
<path d="M42.6781 22.6861V2.32508H50.612C53.8124 2.32508 56.2941 3.16747 58.0572 4.85226C59.8203 6.53704 60.7018 9.00679 60.7018 12.2615C60.7018 15.5162 59.8394 18.0721 58.1147 19.9292C56.3899 21.7671 53.9178 22.6861 50.6982 22.6861H42.6781ZM46.645 18.9528H50.7557C52.4805 18.9528 53.8603 18.388 54.8951 17.2584C55.93 16.1288 56.4474 14.4632 56.4474 12.2615C56.4474 10.2704 55.9396 8.74833 54.9239 7.69534C53.9082 6.6232 52.4805 6.08713 50.6407 6.08713H46.645V18.9528Z"/>
<path d="M79.1661 14.8461C79.1661 15.4205 79.1565 15.8129 79.1374 16.0235H66.9491C67.1599 17.1914 67.6582 18.0912 68.4439 18.723C69.2488 19.3548 70.2932 19.6707 71.5772 19.6707C73.5319 19.6707 75.0459 19.0006 76.119 17.6605L78.6199 19.7856C77.0677 21.9299 74.6243 23.002 71.2897 23.002C68.6834 23.002 66.6329 22.2649 65.1381 20.7907C63.6625 19.3165 62.9247 17.3158 62.9247 14.7887C62.9247 12.3189 63.6816 10.3374 65.1956 8.84405C66.7095 7.33157 68.6738 6.57534 71.0885 6.57534C73.714 6.57534 75.7166 7.33157 77.0964 8.84405C78.4762 10.3374 79.1661 12.3381 79.1661 14.8461ZM71.0885 9.8779C70.0345 9.8779 69.1434 10.1555 68.4151 10.7107C67.6869 11.2468 67.2078 12.0605 66.9778 13.1517H75.2854C75.1513 12.2136 74.7392 11.4382 74.0493 10.8256C73.3594 10.1938 72.3725 9.8779 71.0885 9.8779Z"/>
<path d="M87.4449 23.0882C84.9728 23.0882 82.7593 22.6287 80.8046 21.7097L82.0694 18.5794C83.6217 19.5176 85.3752 19.9866 87.3299 19.9866C89.1505 19.9866 90.0608 19.4314 90.0608 18.321C90.0608 17.8615 89.8213 17.5073 89.3422 17.2584C88.8631 17.0095 87.9432 16.7319 86.5826 16.4256C84.6853 16.0044 83.2768 15.43 82.3569 14.7025C81.4562 13.975 81.0058 12.9124 81.0058 11.5148C81.0058 9.94491 81.5616 8.74833 82.6731 7.92508C83.8038 7.10183 85.3369 6.69021 87.2725 6.69021C89.2655 6.69021 91.3161 7.10183 93.4241 7.92508L92.1305 11.0841C90.6166 10.28 88.9876 9.8779 87.2437 9.8779C85.7106 9.8779 84.944 10.3278 84.944 11.2276C84.944 11.7063 85.1644 12.07 85.6052 12.3189C86.0651 12.5678 86.9754 12.855 88.3361 13.1805C90.3099 13.6591 91.7568 14.2526 92.6767 14.961C93.6157 15.6502 94.0852 16.6458 94.0852 17.9476C94.0852 21.3747 91.8718 23.0882 87.4449 23.0882Z"/>
<path d="M96.8821 22.6861V0.917901H100.82V8.442C102.238 7.25499 103.877 6.66149 105.736 6.66149C107.748 6.66149 109.243 7.17841 110.22 8.21226C111.217 9.22696 111.715 10.9309 111.715 13.3241V22.6861H107.777V14.3005C107.777 12.8071 107.489 11.7541 106.914 11.1415C106.359 10.5288 105.544 10.2225 104.471 10.2225C103.11 10.2225 101.903 10.7682 100.849 11.8594V22.6861H96.8821Z"/>
<path d="M121.942 23.0307C119.642 23.0307 117.802 22.2936 116.423 20.8194C115.043 19.3261 114.353 17.3254 114.353 14.8174C114.353 12.3285 115.033 10.347 116.394 8.87277C117.755 7.37944 119.546 6.63277 121.769 6.63277C123.82 6.63277 125.43 7.20713 126.599 8.35585V7.00611H130.508V22.6861H126.656V21.1641C125.621 22.4085 124.05 23.0307 121.942 23.0307ZM122.804 19.4697C124.606 19.4697 125.89 18.7805 126.656 17.402V12.2041C126.273 11.5723 125.717 11.0841 124.989 10.7394C124.261 10.3757 123.504 10.1938 122.718 10.1938C121.434 10.1938 120.399 10.6054 119.613 11.4287C118.828 12.2328 118.435 13.3623 118.435 14.8174C118.435 16.2533 118.828 17.3924 119.613 18.2348C120.399 19.0581 121.463 19.4697 122.804 19.4697Z"/>
<path d="M134.192 22.6861V7.00611H138.015V9.04508C139.223 7.45602 140.852 6.66149 142.902 6.66149C143.381 6.66149 143.745 6.70935 143.994 6.80508V11.0841C143.266 10.8926 142.634 10.7969 142.097 10.7969C140.928 10.7969 139.98 11.1798 139.251 11.9456C138.523 12.7114 138.159 13.8218 138.159 15.2769V22.6861H134.192Z"/>
<path d="M150.281 4.36405C149.821 4.84269 149.256 5.082 148.585 5.082C147.914 5.082 147.339 4.84269 146.86 4.36405C146.381 3.88542 146.141 3.31106 146.141 2.64098C146.141 1.97089 146.381 1.39653 146.86 0.917901C147.339 0.439268 147.914 0.199951 148.585 0.199951C149.256 0.199951 149.821 0.439268 150.281 0.917901C150.76 1.39653 150.999 1.97089 150.999 2.64098C150.999 3.31106 150.76 3.88542 150.281 4.36405ZM146.544 22.6861V7.00611H150.568V22.6861H146.544Z"/>
<path d="M154.376 22.6861V7.00611H158.199V8.442C159.656 7.25499 161.333 6.66149 163.23 6.66149C165.242 6.66149 166.737 7.17841 167.714 8.21226C168.711 9.22696 169.209 10.9309 169.209 13.3241V22.6861H165.271V14.3005C165.271 12.8071 164.983 11.7541 164.408 11.1415C163.853 10.5288 163.038 10.2225 161.965 10.2225C160.604 10.2225 159.397 10.7682 158.343 11.8594V22.6861H154.376Z"/>
<path d="M179.836 28.2C177.23 28.2 175.083 27.8553 173.397 27.1661V23.5189C175.352 24.3996 177.287 24.84 179.204 24.84C180.833 24.84 182.059 24.5623 182.883 24.0071C183.726 23.4519 184.148 22.5234 184.148 21.2215V20.2164C183.113 21.4417 181.542 22.0543 179.434 22.0543C177.153 22.0543 175.313 21.3364 173.914 19.9005C172.535 18.4646 171.845 16.6075 171.845 14.3292C171.845 12.0509 172.525 10.2034 173.886 8.78662C175.266 7.35072 177.057 6.63277 179.261 6.63277C181.312 6.63277 182.922 7.20713 184.091 8.35585V7.00611H188V19.9292C188 22.6095 187.368 24.6581 186.103 26.0748C184.838 27.4916 182.749 28.2 179.836 28.2ZM180.296 18.522C182.097 18.522 183.381 17.8328 184.148 16.4543V12.2041C183.765 11.5723 183.209 11.0745 182.481 10.7107C181.753 10.347 180.996 10.1651 180.21 10.1651C178.945 10.1651 177.91 10.548 177.105 11.3138C176.32 12.0796 175.927 13.0752 175.927 14.3005C175.927 15.5449 176.32 16.5596 177.105 17.3446C177.91 18.1295 178.974 18.522 180.296 18.522Z"/>
</mask>
<path d="M42.6781 22.6861V2.32508H50.612C53.8124 2.32508 56.2941 3.16747 58.0572 4.85226C59.8203 6.53704 60.7018 9.00679 60.7018 12.2615C60.7018 15.5162 59.8394 18.0721 58.1147 19.9292C56.3899 21.7671 53.9178 22.6861 50.6982 22.6861H42.6781ZM46.645 18.9528H50.7557C52.4805 18.9528 53.8603 18.388 54.8951 17.2584C55.93 16.1288 56.4474 14.4632 56.4474 12.2615C56.4474 10.2704 55.9396 8.74833 54.9239 7.69534C53.9082 6.6232 52.4805 6.08713 50.6407 6.08713H46.645V18.9528Z" fill="#fff"/>
<path d="M79.1661 14.8461C79.1661 15.4205 79.1565 15.8129 79.1374 16.0235H66.9491C67.1599 17.1914 67.6582 18.0912 68.4439 18.723C69.2488 19.3548 70.2932 19.6707 71.5772 19.6707C73.5319 19.6707 75.0459 19.0006 76.119 17.6605L78.6199 19.7856C77.0677 21.9299 74.6243 23.002 71.2897 23.002C68.6834 23.002 66.6329 22.2649 65.1381 20.7907C63.6625 19.3165 62.9247 17.3158 62.9247 14.7887C62.9247 12.3189 63.6816 10.3374 65.1956 8.84405C66.7095 7.33157 68.6738 6.57534 71.0885 6.57534C73.714 6.57534 75.7166 7.33157 77.0964 8.84405C78.4762 10.3374 79.1661 12.3381 79.1661 14.8461ZM71.0885 9.8779C70.0345 9.8779 69.1434 10.1555 68.4151 10.7107C67.6869 11.2468 67.2078 12.0605 66.9778 13.1517H75.2854C75.1513 12.2136 74.7392 11.4382 74.0493 10.8256C73.3594 10.1938 72.3725 9.8779 71.0885 9.8779Z" fill="#fff"/>
<path d="M87.4449 23.0882C84.9728 23.0882 82.7593 22.6287 80.8046 21.7097L82.0694 18.5794C83.6217 19.5176 85.3752 19.9866 87.3299 19.9866C89.1505 19.9866 90.0608 19.4314 90.0608 18.321C90.0608 17.8615 89.8213 17.5073 89.3422 17.2584C88.8631 17.0095 87.9432 16.7319 86.5826 16.4256C84.6853 16.0044 83.2768 15.43 82.3569 14.7025C81.4562 13.975 81.0058 12.9124 81.0058 11.5148C81.0058 9.94491 81.5616 8.74833 82.6731 7.92508C83.8038 7.10183 85.3369 6.69021 87.2725 6.69021C89.2655 6.69021 91.3161 7.10183 93.4241 7.92508L92.1305 11.0841C90.6166 10.28 88.9876 9.8779 87.2437 9.8779C85.7106 9.8779 84.944 10.3278 84.944 11.2276C84.944 11.7063 85.1644 12.07 85.6052 12.3189C86.0651 12.5678 86.9754 12.855 88.3361 13.1805C90.3099 13.6591 91.7568 14.2526 92.6767 14.961C93.6157 15.6502 94.0852 16.6458 94.0852 17.9476C94.0852 21.3747 91.8718 23.0882 87.4449 23.0882Z" fill="#fff"/>
<path d="M96.8821 22.6861V0.917901H100.82V8.442C102.238 7.25499 103.877 6.66149 105.736 6.66149C107.748 6.66149 109.243 7.17841 110.22 8.21226C111.217 9.22696 111.715 10.9309 111.715 13.3241V22.6861H107.777V14.3005C107.777 12.8071 107.489 11.7541 106.914 11.1415C106.359 10.5288 105.544 10.2225 104.471 10.2225C103.11 10.2225 101.903 10.7682 100.849 11.8594V22.6861H96.8821Z" fill="#fff"/>
<path d="M121.942 23.0307C119.642 23.0307 117.802 22.2936 116.423 20.8194C115.043 19.3261 114.353 17.3254 114.353 14.8174C114.353 12.3285 115.033 10.347 116.394 8.87277C117.755 7.37944 119.546 6.63277 121.769 6.63277C123.82 6.63277 125.43 7.20713 126.599 8.35585V7.00611H130.508V22.6861H126.656V21.1641C125.621 22.4085 124.05 23.0307 121.942 23.0307ZM122.804 19.4697C124.606 19.4697 125.89 18.7805 126.656 17.402V12.2041C126.273 11.5723 125.717 11.0841 124.989 10.7394C124.261 10.3757 123.504 10.1938 122.718 10.1938C121.434 10.1938 120.399 10.6054 119.613 11.4287C118.828 12.2328 118.435 13.3623 118.435 14.8174C118.435 16.2533 118.828 17.3924 119.613 18.2348C120.399 19.0581 121.463 19.4697 122.804 19.4697Z" fill="#fff"/>
<path d="M134.192 22.6861V7.00611H138.015V9.04508C139.223 7.45602 140.852 6.66149 142.902 6.66149C143.381 6.66149 143.745 6.70935 143.994 6.80508V11.0841C143.266 10.8926 142.634 10.7969 142.097 10.7969C140.928 10.7969 139.98 11.1798 139.251 11.9456C138.523 12.7114 138.159 13.8218 138.159 15.2769V22.6861H134.192Z" fill="#fff"/>
</svg>
